<svg width="463" height="415" viewBox="0 0 463 415" fill="none" xmlns="http://www.w3.org/2000/svg">
<g clip-path="url(#clip0_355_172)">
<g clip-path="url(#clip1_355_172)">
<path d="M188.5 350.605C188.046 351.54 187.599 352.471 187.165 353.392C184.043 360.016 181.573 366.034 181.362 368.937C180.944 374.672 183.183 380.356 187.664 385.539L198.02 364.564C194.786 361.7 192.248 358.595 190.486 355.335C189.65 353.788 188.985 352.208 188.5 350.605ZM190.535 388.509C195.488 393.126 202.274 397.228 210.595 400.489C220.276 404.283 231.985 406.915 245.265 407.883C292.507 411.326 359.204 393.715 424.936 332.683C435.483 322.89 443.277 313.294 448.425 303.98C454.632 292.752 456.981 281.954 455.666 271.741C454.352 261.53 449.359 251.781 440.881 242.65C433.555 234.76 423.642 227.344 411.264 220.501C403.328 216.115 395.611 211.949 388.036 207.86C335.679 179.599 290.005 154.935 268.219 110.583C283.792 153.321 324.55 175.326 371.9 200.884C378.438 204.413 385.099 208.008 391.705 211.661C402.778 217.781 411.694 224.467 418.345 231.631C426.383 240.288 431.133 249.654 432.411 259.58C433.688 269.503 431.479 279.862 425.597 290.502C420.921 298.961 413.916 307.609 404.487 316.364C352.418 364.71 299.42 381.778 259.062 382.219C241.892 382.407 226.965 379.587 215.319 374.877C209.854 372.667 205.087 370.029 201.117 367.076L190.535 388.509ZM233.293 293.122C233.768 292.159 234.934 291.764 235.897 292.239C236.86 292.714 237.256 293.88 236.78 294.843L231.598 305.341C233.074 306.065 234.67 306.738 236.376 307.349C244.319 310.195 254.523 311.645 266.241 310.847C290.363 309.204 320.715 298.053 350.869 270.055C356.582 264.751 360.795 259.569 363.566 254.555C366.848 248.619 368.094 242.94 367.406 237.599C366.719 232.262 364.084 227.137 359.603 222.311C355.658 218.063 350.301 214.059 343.598 210.354C339.181 207.912 334.943 205.624 330.783 203.379C302.716 188.229 278.093 174.935 265.434 151.821C271.873 173.311 291.582 183.953 314.647 196.402C317.769 198.088 320.951 199.806 324.04 201.513C329.438 204.497 333.798 207.771 337.067 211.291C341.108 215.644 343.501 220.385 344.151 225.439C344.802 230.489 343.695 235.729 340.738 241.078C338.44 245.237 335.015 249.47 330.42 253.736C309.033 273.595 287.276 282.463 269.268 284.746C260.007 285.92 251.716 285.361 244.942 283.658C240.915 282.646 237.388 281.219 234.47 279.497L224.161 300.377C225.316 301.455 226.665 302.484 228.194 303.449L233.293 293.122ZM228.84 310.925L217.734 333.42C220.21 335.041 223.071 336.526 226.28 337.832C235.249 341.481 246.8 343.668 260.153 343.52C292.037 343.167 333.98 329.537 375.558 290.931C382.883 284.13 388.289 277.477 391.853 271.03C396.109 263.33 397.723 255.945 396.826 248.98C395.93 242.018 392.509 235.352 386.696 229.091C381.624 223.629 374.748 218.487 366.153 213.736C360.563 210.647 355.165 207.733 349.867 204.873C313.684 185.342 282.029 168.248 266.318 138.036C275.811 166.631 302.553 181.067 333.731 197.896C337.992 200.197 342.334 202.54 346.595 204.895C353.884 208.925 359.763 213.336 364.159 218.071C369.533 223.859 372.712 230.142 373.571 236.82C374.431 243.494 372.956 250.44 369.025 257.553C365.933 263.145 361.315 268.85 355.109 274.612C323.753 303.726 291.987 315.335 266.656 317.061C254.03 317.921 242.959 316.331 234.28 313.222C232.352 312.531 230.536 311.762 228.84 310.925ZM214.963 339.031L203.918 361.403C207.605 364.301 212.218 366.911 217.634 369.102C228.589 373.532 242.701 376.184 259.013 376.005C298.067 375.578 349.483 358.941 400.247 311.807C409.183 303.51 415.783 295.385 420.139 287.505C425.371 278.041 427.352 268.95 426.246 260.36C425.141 251.774 420.934 243.566 413.788 235.871C407.589 229.194 399.195 222.916 388.708 217.119C381.946 213.381 375.388 209.841 368.951 206.367C324.707 182.485 286.056 161.62 267.289 124.384C279.85 159.998 313.579 178.211 352.815 199.39C358.215 202.305 363.716 205.274 369.15 208.278C378.331 213.353 385.729 218.902 391.252 224.851C397.958 232.073 401.922 239.898 402.991 248.2C404.059 256.498 402.217 265.151 397.311 274.027C393.427 281.053 387.616 288.229 379.798 295.488C336.915 335.305 293.391 349.367 260.202 349.734C245.969 349.891 233.598 347.536 223.941 343.607C220.633 342.261 217.63 340.723 214.963 339.031ZM200.888 358.756L211.736 336.784C210.318 335.698 209.025 334.562 207.864 333.384L197.367 354.645C198.353 356.055 199.529 357.429 200.888 358.756ZM214.549 331.085L225.428 309.052C223.931 308.139 222.556 307.166 221.314 306.143L210.821 327.395C211.87 328.67 213.117 329.905 214.549 331.085ZM238.606 262.334C239.081 261.371 240.248 260.976 241.211 261.451C242.174 261.926 242.569 263.092 242.094 264.055L237.231 273.903C239.687 275.419 242.798 276.696 246.453 277.615C252.558 279.15 260.064 279.649 268.489 278.581C285.375 276.44 305.868 268.039 326.18 249.18C330.282 245.371 333.301 241.66 335.28 238.081C337.587 233.908 338.465 229.936 337.987 226.219C337.509 222.505 335.659 218.923 332.51 215.531C329.693 212.497 325.855 209.631 321.042 206.971C317.798 205.178 314.72 203.516 311.698 201.885C291.793 191.141 274.243 181.667 264.662 165.691C268.005 180.032 280.649 186.859 295.562 194.909C297.547 195.98 299.568 197.071 301.484 198.13C304.991 200.069 307.832 202.205 309.974 204.512C312.683 207.43 314.29 210.629 314.731 214.059C315.173 217.485 314.434 221.018 312.452 224.603C310.946 227.328 308.715 230.09 305.731 232.861C285.833 251.336 265.34 254.928 252.405 252.314C248.484 251.521 245.187 250.151 242.726 248.431C241.916 247.864 241.19 247.257 240.553 246.615L231.027 265.763C231.103 265.974 231.157 266.197 231.186 266.429C231.38 267.955 232.195 269.493 233.549 270.951C233.719 271.134 233.897 271.316 234.083 271.495L238.606 262.334ZM195.074 350.505L205.109 330.18C204.382 329.199 203.74 328.196 203.188 327.175C202.681 326.238 202.248 325.287 201.891 324.324L194.705 338.768C193.325 342.726 193.513 346.71 195.074 350.505ZM208.353 323.609L218.356 303.348C217.207 302.089 216.238 300.776 215.461 299.423C215.243 299.042 215.04 298.659 214.852 298.273L207.879 312.288C207.86 312.573 207.801 312.86 207.699 313.142C206.42 316.671 206.711 320.242 208.353 323.609ZM221.401 297.181L231.233 277.269C230.408 276.603 229.659 275.909 228.992 275.191C228.379 274.531 227.832 273.849 227.353 273.147L219.727 288.474C219.712 288.584 219.691 288.694 219.664 288.802C219.027 291.335 219.479 293.901 220.871 296.328C221.035 296.614 221.212 296.899 221.401 297.181ZM212.333 289.344C198.608 259.947 169.776 250.103 130.678 236.755C112.099 230.412 91.2499 223.295 68.4662 212.903C38.2716 199.132 17.3714 178.744 7.16505 155.899C2.4246 145.288 -0.00956277 134.149 2.82324e-05 122.892C0.00961924 111.635 2.46312 100.281 7.4977 89.2418C18.5579 64.991 42.0889 42.2706 79.5478 25.5351C108.645 12.5353 141.478 2.87186 171.066 0.54156C189.983 -0.948399 207.635 0.553411 222.25 6.07705C237.167 11.7147 248.893 21.4957 255.589 36.4836C258.679 43.3999 260.677 51.3878 261.398 60.5462C267.311 135.621 323.461 165.93 390.984 202.378C398.66 206.521 406.481 210.743 414.261 215.043C427.225 222.209 437.66 230.033 445.438 238.41C454.808 248.502 460.344 259.411 461.831 270.961C463.317 282.508 460.74 294.573 453.884 306.977C448.415 316.87 440.216 326.989 429.176 337.239C361.957 399.653 293.454 417.641 244.826 414.097C230.899 413.082 218.569 410.302 208.329 406.289C197.927 402.212 189.634 396.841 183.953 390.723C177.713 384.002 174.574 376.372 175.148 368.499C175.423 364.718 178.131 357.96 181.536 350.736C184.8 343.811 188.715 336.387 191.662 330.89L212.333 289.344ZM255.395 78.1449C254.681 72.2354 253.267 67.0413 251.241 62.5076C246.231 51.2936 237.386 43.9481 226.104 39.6842C214.52 35.3061 200.344 34.1304 185.04 35.3357C160.521 37.2668 133.264 45.2965 109.078 56.1022C87.0095 65.9616 71.0777 77.8896 60.7409 90.7374C50.7212 103.191 45.9857 116.499 46.0383 129.583C46.0908 142.677 50.9303 155.628 60.0603 167.352C69.6036 179.607 83.8156 190.518 102.15 198.88C118.472 206.324 134.052 212.197 148.437 217.544C132.21 208.206 115.955 198.427 104.527 189.295C94.5636 181.333 87.2667 172.177 82.9182 162.443C78.8162 153.262 77.3294 143.586 78.6878 133.92C80.0401 124.298 84.2101 114.72 91.4251 105.69C100.489 94.3472 114.377 83.8754 133.539 75.3143C154.041 66.1546 177.181 59.3453 198.04 57.7025C211.437 56.6473 223.955 57.7172 234.344 61.6436C243.16 64.9756 250.423 70.3333 255.395 78.1449ZM188.415 233.442C189.808 234.231 190.387 235.971 189.704 237.452C188.984 239.013 187.134 239.695 185.573 238.975C174.722 233.935 162.479 229.388 149.157 224.441C133.873 218.766 117.185 212.568 99.5669 204.533C80.3005 195.746 65.3031 184.2 55.1625 171.178C45.1763 158.355 39.8828 144.1 39.8245 129.608C39.7663 115.107 44.9414 100.449 55.8918 86.8386C66.8188 73.2572 83.5225 60.7097 106.543 50.4247C131.343 39.3449 159.329 31.1086 184.553 29.122C200.71 27.8494 215.795 29.1353 228.297 33.8603C239.482 38.0875 248.578 45.0324 254.534 55.3039C253.619 49.2267 252.054 43.8133 249.911 39.0178C243.957 25.6904 233.453 16.9635 220.057 11.9009C206.36 6.72425 189.617 5.33262 171.553 6.75528C142.67 9.03014 110.566 18.4869 82.082 31.2127C46.1109 47.2834 23.6143 68.8829 13.1509 91.8248C8.49267 102.039 6.22264 112.521 6.21375 122.892C6.20486 133.264 8.45688 143.548 12.8426 153.365C22.449 174.866 42.2879 194.133 71.0492 207.25C93.4484 217.466 114.191 224.547 132.676 230.858C171.341 244.058 200.327 253.96 215.789 282.396L236.837 240.091C235.36 236.684 232.913 233.283 229.721 229.93C221.791 222.987 210.122 219.771 195.951 215.868C184.124 212.61 170.637 208.895 155.998 202.219C143.329 196.441 133.457 188.835 126.77 180.249C120.138 171.732 116.623 162.251 116.584 152.599C116.545 142.939 119.981 133.188 127.252 124.151C134.448 115.207 145.426 106.954 160.535 100.204C176.739 92.9642 195.032 87.582 211.527 86.2829C222.164 85.4451 232.115 86.2991 240.39 89.4268C246.838 91.8637 252.252 95.6545 256.185 101.06C255.721 95.2644 254.479 90.267 252.572 85.9975C248.506 76.8969 241.32 70.9327 232.151 67.4674C222.68 63.888 211.071 62.9283 198.528 63.9162C178.373 65.5035 155.962 72.1062 136.073 80.9918C117.85 89.1335 104.735 98.9761 96.2742 109.565C89.7923 117.677 86.0536 126.228 84.8527 134.773C83.658 143.274 84.9734 151.801 88.5957 159.909C92.5476 168.755 99.235 177.121 108.402 184.446C122.294 195.547 144.048 207.92 163.827 219.169C172.714 224.224 181.206 229.054 188.415 233.442ZM206.045 250.548C204.646 249.552 204.319 247.61 205.314 246.211C206.31 244.811 208.252 244.484 209.652 245.48C211.663 246.916 213.585 248.409 215.415 249.968C217.248 251.53 218.995 253.165 220.652 254.883C221.843 256.121 221.805 258.09 220.567 259.281C219.329 260.472 217.359 260.434 216.168 259.196C214.661 257.632 213.06 256.135 211.37 254.695C209.677 253.252 207.9 251.873 206.045 250.548ZM298.487 203.588C296.417 202.444 294.497 201.408 292.614 200.391C274.461 190.593 259.366 182.445 257.7 161.287C257.552 159.404 257.161 157.806 256.562 156.467C255.329 153.707 253.121 151.887 250.291 150.817C247.16 149.634 243.252 149.322 238.989 149.658C231.926 150.214 224.056 152.535 217.06 155.661C210.815 158.451 206.336 161.789 203.462 165.362C200.801 168.669 199.543 172.163 199.557 175.567C199.571 178.98 200.854 182.384 203.276 185.493C205.911 188.878 209.873 191.908 215.012 194.251C216.241 194.812 218.19 195.565 220.518 196.464C229.929 200.098 245.251 206.016 251.529 214.233C256.438 220.658 256.425 227.946 246.142 235.802C244.141 237.331 243.394 238.823 243.666 240.083C243.904 241.185 244.817 242.312 246.284 243.338C248.073 244.589 250.568 245.604 253.623 246.222C265.038 248.529 283.33 245.166 301.491 228.304C303.982 225.991 305.807 223.752 306.994 221.606C308.325 219.197 308.836 216.931 308.567 214.838C308.298 212.749 307.234 210.708 305.417 208.752C303.727 206.932 301.408 205.203 298.487 203.588ZM240.296 232.713C240.89 232.077 241.578 231.456 242.365 230.855C248.963 225.814 249.289 221.553 246.583 218.01C241.364 211.18 227.061 205.656 218.276 202.263C215.875 201.336 213.866 200.56 212.429 199.905C206.358 197.136 201.611 193.47 198.378 189.319C195.1 185.11 193.363 180.403 193.343 175.591C193.324 170.771 195.021 165.927 198.612 161.464C202.077 157.157 207.328 153.199 214.526 149.983C222.135 146.584 230.734 144.055 238.502 143.444C243.618 143.041 248.435 143.463 252.484 144.993C254.609 145.797 256.515 146.893 258.138 148.321C257.709 146.066 257.392 143.71 257.197 141.237C256.945 138.039 256.27 135.299 255.232 132.977C253.055 128.103 249.187 124.902 244.244 123.034C239 121.052 232.525 120.524 225.502 121.077C214.075 121.977 201.358 125.726 190.064 130.771C179.864 135.328 172.522 140.814 167.782 146.706C163.281 152.3 161.154 158.247 161.178 164.071C161.201 169.904 163.373 175.695 167.472 180.958C171.834 186.56 178.359 191.56 186.796 195.408C200.298 201.566 213.569 208.767 223.911 216.579C227.474 219.27 230.703 222.045 233.494 224.889C236.069 227.1 238.345 229.667 240.296 232.713ZM205.987 212.227C199.139 208.232 191.717 204.484 184.213 201.062C174.844 196.788 167.534 191.153 162.574 184.784C157.619 178.421 154.993 171.327 154.964 164.095C154.935 156.855 157.501 149.558 162.932 142.807C168.263 136.182 176.377 130.076 187.53 125.093C199.437 119.774 212.883 115.819 225.014 114.863C232.891 114.243 240.275 114.881 246.437 117.21C250.598 118.782 254.188 121.106 256.997 124.304C256.882 123.278 256.777 122.242 256.694 121.186C256.338 116.673 255.378 112.792 253.902 109.487C250.78 102.5 245.253 97.9173 238.197 95.2506C230.84 92.4699 221.798 91.7261 212.015 92.4966C196.224 93.7403 178.66 98.9159 163.069 105.881C148.913 112.206 138.707 119.839 132.101 128.05C125.761 135.93 122.765 144.331 122.798 152.575C122.831 160.828 125.892 169.006 131.668 176.423C137.757 184.242 146.844 191.213 158.581 196.566C172.78 203.041 185.995 206.682 197.583 209.873C200.484 210.672 203.288 211.445 205.987 212.227Z" fill="#E77917"/>
</g>
</g>
<defs>
<clipPath id="clip0_355_172">
<rect width="462.237" height="414.522" fill="white"/>
</clipPath>
<clipPath id="clip1_355_172">
<rect width="462.237" height="414.522" fill="white"/>
</clipPath>
</defs>
</svg>
