<svg width="1500" height="417" viewBox="0 0 1500 417" fill="none" xmlns="http://www.w3.org/2000/svg">
<g clip-path="url(#clip0_355_127)">
<g clip-path="url(#clip1_355_127)">
<g clip-path="url(#clip2_355_127)">
<g clip-path="url(#clip3_355_127)">
<g clip-path="url(#clip4_355_127)">
<g clip-path="url(#clip5_355_127)">
<g clip-path="url(#clip6_355_127)">
<g clip-path="url(#clip7_355_127)">
<path d="M751.043 214.481V317.436C741.516 331.016 728.252 341.201 711.251 347.991C694.197 354.728 674.38 358.097 651.799 358.097C628.902 358.097 608.585 352.728 590.847 341.99C573.109 331.253 559.397 315.988 549.712 296.197C540.027 276.407 535.053 253.484 534.79 227.429V202.875C534.79 160.608 544.659 127.843 564.398 104.578C584.083 81.3128 611.796 69.6804 647.535 69.6804C676.853 69.6804 700.434 77.181 718.278 92.1821C736.121 107.131 747.043 128.369 751.043 155.897H714.014C707.119 118.737 685.038 100.156 647.772 100.156C622.928 100.156 604.111 108.868 591.321 126.29C578.53 143.712 572.082 168.925 571.977 201.927V224.903C571.977 256.379 579.162 281.407 593.531 299.987C607.953 318.568 627.429 327.858 651.957 327.858C665.853 327.858 678.011 326.305 688.433 323.2C698.802 320.094 707.408 314.883 714.251 307.567V244.562H649.272V214.481H751.043ZM845.866 58.1532V354.228H810.179V58.1532H845.866ZM941.637 145.633V354.228H906.029V145.633H941.637ZM903.107 90.3662C903.107 84.5763 904.871 79.6811 908.397 75.6808C911.924 71.6805 917.161 69.6804 924.109 69.6804C931.057 69.6804 936.32 71.6805 939.9 75.6808C943.531 79.6811 945.347 84.5763 945.347 90.3662C945.347 96.1561 943.531 100.972 939.9 104.815C936.32 108.657 931.057 110.578 924.109 110.578C917.161 110.578 911.924 108.657 908.397 104.815C904.871 100.972 903.107 96.1561 903.107 90.3662ZM1011.43 95.1823H1047.04V145.633H1086.04V173.267H1047.04V302.593C1047.04 310.909 1048.78 317.173 1052.25 321.384C1055.72 325.542 1061.65 327.621 1070.01 327.621C1074.12 327.621 1079.78 326.858 1086.99 325.331V354.228C1077.62 356.807 1068.49 358.097 1059.59 358.097C1043.64 358.097 1031.64 353.281 1023.59 343.648C1015.48 334.016 1011.43 320.331 1011.43 302.593V173.267H973.455V145.633H1011.43V95.1823ZM1211.26 328.963C1224 328.963 1235.13 325.121 1244.66 317.436C1254.13 309.699 1259.4 300.04 1260.45 288.46H1294.16C1293.53 300.461 1289.43 311.857 1281.85 322.647C1274.27 333.437 1264.13 342.043 1251.45 348.465C1238.82 354.886 1225.42 358.097 1211.26 358.097C1182.89 358.097 1160.31 348.623 1143.52 329.674C1126.73 310.725 1118.33 284.802 1118.33 251.905V245.904C1118.33 225.587 1122.07 207.533 1129.55 191.742C1137.02 175.952 1147.73 163.687 1161.68 154.95C1175.58 146.212 1192.05 141.844 1211.1 141.844C1234.47 141.844 1253.9 148.844 1269.37 162.845C1284.85 176.846 1293.11 195.032 1294.16 217.402H1260.45C1259.4 203.875 1254.29 192.769 1245.13 184.084C1235.92 175.452 1224.58 171.135 1211.1 171.135C1193 171.135 1178.94 177.636 1168.94 190.637C1159 203.691 1154.02 222.56 1154.02 247.246V253.957C1154.02 278.012 1158.97 296.54 1168.86 309.541C1178.76 322.489 1192.89 328.963 1211.26 328.963ZM1369.88 58.1532V170.899C1385.72 151.529 1406.28 141.844 1431.54 141.844C1475.65 141.844 1497.89 166.688 1498.26 216.376V354.228H1462.65V216.218C1462.49 201.164 1459.04 190.058 1452.31 182.899C1445.57 175.688 1435.07 172.083 1420.8 172.083C1409.22 172.083 1399.07 175.162 1390.33 181.32C1381.59 187.479 1374.77 195.585 1369.88 205.638V354.228H1334.27V58.1532H1369.88Z" fill="#130912"/>
</g>
</g>
</g>
</g>
<g clip-path="url(#clip8_355_127)">
<g clip-path="url(#clip9_355_127)">
<path d="M190.159 351.469C189.704 352.404 189.257 353.335 188.823 354.256C185.701 360.88 183.232 366.898 183.02 369.801C182.602 375.536 184.841 381.22 189.322 386.403L199.678 365.428C196.444 362.564 193.906 359.459 192.144 356.199C191.308 354.651 190.644 353.072 190.159 351.469ZM192.193 389.373C197.146 393.99 203.933 398.092 212.253 401.353C221.935 405.147 233.643 407.779 246.923 408.747C294.165 412.19 360.862 394.579 426.594 333.547C437.141 323.754 444.935 314.158 450.084 304.844C456.29 293.616 458.639 282.818 457.324 272.604C456.01 262.394 451.017 252.644 442.54 243.514C435.213 235.623 425.3 228.208 412.922 221.365C404.987 216.979 397.269 212.813 389.694 208.724C337.337 180.463 291.664 155.799 269.877 111.447C285.45 154.185 326.209 176.19 373.558 201.748C380.096 205.277 386.757 208.872 393.364 212.524C404.436 218.645 413.352 225.331 420.003 232.495C428.041 241.152 432.791 250.518 434.069 260.444C435.347 270.367 433.137 280.726 427.256 291.366C422.579 299.825 415.574 308.473 406.145 317.228C354.076 365.574 301.078 382.642 260.72 383.083C243.55 383.271 228.624 380.451 216.977 375.741C211.512 373.531 206.745 370.893 202.775 367.939L192.193 389.373ZM234.951 293.986C235.426 293.023 236.592 292.628 237.555 293.103C238.518 293.578 238.914 294.744 238.439 295.707L233.256 306.205C234.733 306.929 236.328 307.602 238.034 308.213C245.977 311.058 256.182 312.509 267.9 311.711C292.021 310.068 322.373 298.917 352.527 270.919C358.241 265.614 362.453 260.433 365.225 255.419C368.506 249.483 369.752 243.804 369.065 238.463C368.378 233.125 365.742 228.001 361.261 223.175C357.316 218.927 351.96 214.923 345.256 211.218C340.839 208.776 336.601 206.488 332.441 204.243C304.374 189.093 279.751 175.799 267.092 152.685C273.532 174.175 293.24 184.817 316.305 197.266C319.428 198.952 322.61 200.67 325.698 202.377C331.096 205.36 335.456 208.635 338.725 212.155C342.767 216.508 345.159 221.249 345.81 226.303C346.46 231.353 345.353 236.593 342.397 241.942C340.098 246.1 336.673 250.334 332.078 254.6C310.691 274.459 288.935 283.327 270.927 285.61C261.665 286.784 253.374 286.225 246.6 284.522C242.573 283.51 239.046 282.083 236.128 280.361L225.819 301.241C226.974 302.319 228.324 303.348 229.853 304.313L234.951 293.986ZM230.498 311.789L219.392 334.284C221.868 335.905 224.729 337.39 227.938 338.696C236.907 342.345 248.458 344.532 261.811 344.384C293.695 344.031 335.638 330.401 377.216 291.795C384.541 284.994 389.947 278.341 393.511 271.894C397.767 264.194 399.381 256.809 398.484 249.844C397.588 242.882 394.167 236.216 388.354 229.955C383.282 224.492 376.406 219.351 367.811 214.6C362.222 211.51 356.823 208.597 351.525 205.737C315.342 186.206 283.687 169.112 267.976 138.9C277.47 167.495 304.212 181.931 335.389 198.76C339.651 201.06 343.992 203.404 348.253 205.759C355.543 209.789 361.421 214.2 365.818 218.935C371.191 224.723 374.37 231.006 375.229 237.683C376.089 244.358 374.614 251.304 370.683 258.416C367.592 264.009 362.974 269.713 356.767 275.476C325.411 304.59 293.645 316.199 268.314 317.924C255.688 318.784 244.617 317.194 235.938 314.085C234.01 313.395 232.194 312.626 230.498 311.789ZM216.621 339.895L205.576 362.267C209.263 365.165 213.876 367.775 219.292 369.966C230.247 374.396 244.359 377.047 260.672 376.869C299.726 376.442 351.142 359.805 401.905 312.671C410.841 304.374 417.441 296.249 421.797 288.369C427.029 278.905 429.01 269.813 427.904 261.224C426.799 252.638 422.592 244.43 415.447 236.735C409.247 230.058 400.853 223.779 390.366 217.983C383.604 214.245 377.046 210.705 370.61 207.23C326.365 183.348 287.714 162.484 268.947 125.248C281.508 160.862 315.237 179.075 354.474 200.254C359.873 203.169 365.374 206.138 370.808 209.142C379.989 214.217 387.387 219.766 392.911 225.715C399.616 232.937 403.581 240.762 404.649 249.064C405.718 257.362 403.876 266.015 398.969 274.891C395.086 281.917 389.274 289.093 381.456 296.352C338.573 336.169 295.049 350.23 261.86 350.598C247.627 350.755 235.256 348.4 225.599 344.471C222.291 343.124 219.288 341.587 216.621 339.895ZM202.546 359.62L213.394 337.648C211.976 336.562 210.683 335.426 209.522 334.248L199.025 355.509C200.011 356.919 201.188 358.293 202.546 359.62ZM216.208 331.949L227.086 309.916C225.589 309.003 224.215 308.03 222.972 307.007L212.479 328.259C213.528 329.534 214.775 330.769 216.208 331.949ZM240.264 263.198C240.74 262.235 241.906 261.84 242.869 262.315C243.832 262.79 244.227 263.956 243.752 264.919L238.89 274.767C241.346 276.283 244.456 277.56 248.111 278.479C254.216 280.014 261.722 280.513 270.147 279.445C287.034 277.304 307.526 268.903 327.838 250.043C331.94 246.235 334.959 242.524 336.938 238.945C339.245 234.772 340.123 230.8 339.645 227.083C339.167 223.369 337.317 219.787 334.168 216.395C331.351 213.361 327.513 210.495 322.7 207.835C319.457 206.042 316.378 204.38 313.356 202.749C293.452 192.005 275.901 182.531 266.32 166.555C269.664 180.896 282.307 187.723 297.22 195.773C299.205 196.844 301.227 197.935 303.142 198.994C306.649 200.932 309.49 203.069 311.632 205.375C314.342 208.294 315.948 211.493 316.39 214.923C316.831 218.349 316.092 221.882 314.11 225.467C312.604 228.192 310.373 230.954 307.389 233.724C287.491 252.2 266.998 255.792 254.063 253.178C250.142 252.385 246.845 251.015 244.384 249.295C243.574 248.728 242.848 248.121 242.212 247.479L232.685 266.627C232.761 266.838 232.815 267.061 232.844 267.293C233.038 268.819 233.853 270.356 235.207 271.815C235.377 271.998 235.556 272.18 235.741 272.359L240.264 263.198ZM196.732 351.369L206.767 331.044C206.04 330.063 205.398 329.06 204.846 328.038C204.339 327.101 203.906 326.15 203.549 325.188L196.363 339.632C194.983 343.59 195.171 347.574 196.732 351.369ZM210.011 324.473L220.015 304.212C218.865 302.953 217.896 301.64 217.12 300.286C216.901 299.906 216.698 299.523 216.51 299.137L209.537 313.152C209.518 313.437 209.46 313.724 209.357 314.006C208.078 317.535 208.369 321.106 210.011 324.473ZM223.06 298.045L232.891 278.133C232.066 277.467 231.317 276.773 230.65 276.055C230.038 275.395 229.49 274.713 229.011 274.011L221.386 289.338C221.37 289.448 221.349 289.558 221.322 289.666C220.685 292.199 221.138 294.765 222.529 297.192C222.693 297.478 222.87 297.763 223.06 298.045ZM213.991 290.208C200.266 260.811 171.434 250.967 132.336 237.619C113.757 231.276 92.9081 224.158 70.1244 213.767C39.9298 199.996 19.0296 179.608 8.82326 156.763C4.08281 146.152 1.64864 135.013 1.65823 123.756C1.66782 112.499 4.12133 101.145 9.1559 90.1057C20.2161 65.8549 43.7471 43.1345 81.206 26.399C110.303 13.3992 143.137 3.73575 172.724 1.40545C191.642 -0.0845072 209.293 1.4173 223.909 6.94094C238.825 12.5786 250.551 22.3596 257.247 37.3475C260.337 44.2638 262.335 52.2517 263.057 61.4101C268.97 136.485 325.119 166.794 392.642 203.242C400.319 207.385 408.139 211.606 415.919 215.907C428.883 223.073 439.318 230.897 447.096 239.274C456.466 249.366 462.002 260.274 463.489 271.825C464.976 283.372 462.398 295.437 455.542 307.841C450.073 317.734 441.874 327.853 430.834 338.103C363.615 400.517 295.112 418.504 246.484 414.961C232.557 413.946 220.227 411.166 209.987 407.153C199.585 403.076 191.292 397.705 185.611 391.587C179.371 384.866 176.233 377.236 176.806 369.363C177.082 365.582 179.789 358.824 183.194 351.6C186.458 344.675 190.373 337.251 193.321 331.754L213.991 290.208ZM257.053 79.0088C256.339 73.0993 254.925 67.9052 252.899 63.3715C247.889 52.1575 239.044 44.812 227.762 40.5481C216.178 36.17 202.002 34.9943 186.699 36.1996C162.179 38.1307 134.922 46.1604 110.736 56.9661C88.6677 66.8255 72.7359 78.7535 62.3992 91.6013C52.3794 104.055 47.6439 117.363 47.6965 130.447C47.749 143.541 52.5885 156.492 61.7185 168.216C71.2618 180.471 85.4738 191.382 103.808 199.744C120.13 207.188 135.71 213.061 150.095 218.408C133.869 209.07 117.613 199.29 106.185 190.159C96.2218 182.197 88.9249 173.04 84.5764 163.307C80.4745 154.126 78.9876 144.449 80.346 134.784C81.6983 125.162 85.8683 115.584 93.0833 106.554C102.147 95.2111 116.035 84.7393 135.197 76.1782C155.699 67.0184 178.839 60.2091 199.699 58.5664C213.096 57.5112 225.613 58.5811 236.002 62.5075C244.818 65.8395 252.081 71.1972 257.053 79.0088ZM190.073 234.305C191.466 235.095 192.045 236.835 191.362 238.316C190.642 239.877 188.793 240.558 187.232 239.838C176.38 234.799 164.137 230.252 150.815 225.305C135.531 219.629 118.843 213.432 101.225 205.397C81.9587 196.61 66.9613 185.064 56.8207 172.042C46.8345 159.219 41.541 144.964 41.4827 130.472C41.4245 115.971 46.5996 101.313 57.55 87.7025C68.477 74.1211 85.1808 61.5736 108.202 51.2886C133.001 40.2088 160.988 31.9724 186.211 29.9859C202.368 28.7133 217.453 29.9992 229.955 34.7242C241.14 38.9514 250.236 45.8963 256.192 56.1677C255.278 50.0906 253.712 44.6772 251.569 39.8817C245.615 26.5543 235.111 17.8274 221.715 12.7648C208.019 7.58814 191.275 6.19651 173.212 7.61917C144.328 9.89404 112.224 19.3508 83.7402 32.0765C47.7691 48.1473 25.2725 69.7468 14.8091 92.6887C10.1509 102.903 7.88084 113.384 7.87195 123.756C7.86307 134.128 10.1151 144.412 14.5008 154.229C24.1072 175.73 43.9461 194.997 72.7074 208.114C95.1066 218.33 115.849 225.411 134.334 231.722C172.999 244.922 201.985 254.823 217.447 283.259L238.495 240.955C237.018 237.548 234.571 234.147 231.379 230.794C223.449 223.851 211.781 220.635 197.609 216.732C185.782 213.474 172.295 209.759 157.656 203.083C144.987 197.305 135.115 189.699 128.428 181.112C121.797 172.596 118.281 163.115 118.242 153.463C118.203 143.803 121.64 134.052 128.91 125.015C136.106 116.071 147.084 107.818 162.193 101.068C178.397 93.8281 196.69 88.4459 213.185 87.1468C223.822 86.309 233.773 87.163 242.049 90.2907C248.497 92.7276 253.911 96.5183 257.843 101.924C257.379 96.1283 256.137 91.1309 254.23 86.8614C250.164 77.7608 242.978 71.7966 233.809 68.3313C224.338 64.7519 212.729 63.7922 200.186 64.7801C180.031 66.3674 157.62 72.9701 137.731 81.8557C119.508 89.9974 106.394 99.84 97.9324 110.429C91.4505 118.541 87.7118 127.092 86.5109 135.637C85.3162 144.138 86.6316 152.665 90.2539 160.773C94.2058 169.618 100.893 177.985 110.06 185.31C123.952 196.411 145.706 208.784 165.485 220.033C174.372 225.088 182.865 229.918 190.073 234.305ZM207.704 251.412C206.304 250.416 205.977 248.474 206.973 247.074C207.968 245.675 209.91 245.348 211.31 246.343C213.321 247.78 215.243 249.273 217.073 250.832C218.906 252.394 220.653 254.029 222.31 255.747C223.501 256.985 223.463 258.954 222.225 260.145C220.987 261.336 219.018 261.298 217.827 260.06C216.319 258.496 214.718 256.999 213.028 255.559C211.335 254.116 209.559 252.737 207.704 251.412ZM300.145 204.452C298.075 203.308 296.155 202.272 294.272 201.255C276.119 191.457 261.024 183.309 259.358 162.151C259.21 160.268 258.819 158.67 258.221 157.331C256.987 154.571 254.779 152.75 251.949 151.681C248.818 150.498 244.91 150.186 240.647 150.521C233.584 151.078 225.714 153.399 218.718 156.524C212.473 159.314 207.994 162.653 205.12 166.226C202.459 169.533 201.202 173.027 201.215 176.431C201.229 179.843 202.513 183.248 204.934 186.357C207.57 189.741 211.531 192.772 216.67 195.115C217.899 195.676 219.848 196.428 222.176 197.328C231.587 200.962 246.909 206.88 253.187 215.097C258.096 221.522 258.083 228.81 247.8 236.666C245.799 238.195 245.053 239.687 245.325 240.947C245.562 242.049 246.476 243.176 247.942 244.202C249.731 245.453 252.226 246.468 255.281 247.086C266.696 249.393 284.988 246.03 303.149 229.168C305.64 226.855 307.466 224.616 308.652 222.47C309.984 220.061 310.494 217.795 310.225 215.702C309.956 213.613 308.892 211.572 307.075 209.615C305.385 207.796 303.066 206.067 300.145 204.452ZM241.954 233.577C242.548 232.941 243.237 232.32 244.023 231.719C250.622 226.678 250.947 222.416 248.241 218.874C243.023 212.044 228.719 206.52 219.934 203.127C217.533 202.2 215.524 201.424 214.087 200.768C208.016 198 203.269 194.334 200.036 190.183C196.759 185.974 195.021 181.267 195.002 176.455C194.982 171.635 196.679 166.791 200.271 162.327C203.735 158.021 208.986 154.063 216.184 150.847C223.793 147.448 232.393 144.919 240.16 144.308C245.276 143.905 250.093 144.327 254.142 145.857C256.268 146.66 258.173 147.757 259.797 149.185C259.367 146.93 259.05 144.573 258.855 142.1C258.603 138.902 257.928 136.163 256.89 133.841C254.713 128.967 250.845 125.766 245.902 123.898C240.658 121.916 234.183 121.388 227.16 121.941C215.733 122.841 203.016 126.589 191.723 131.635C181.522 136.192 174.18 141.678 169.44 147.57C164.94 153.163 162.812 159.111 162.836 164.935C162.859 170.768 165.032 176.559 169.13 181.822C173.493 187.424 180.017 192.424 188.455 196.272C201.956 202.43 215.227 209.631 225.57 217.443C229.133 220.134 232.361 222.909 235.152 225.753C237.727 227.963 240.003 230.531 241.954 233.577ZM207.645 213.09C200.797 209.096 193.375 205.348 185.872 201.926C176.502 197.652 169.192 192.017 164.232 185.648C159.278 179.285 156.651 172.191 156.622 164.959C156.593 157.719 159.16 150.422 164.591 143.671C169.921 137.046 178.035 130.94 189.188 125.957C201.095 120.638 214.541 116.683 226.673 115.727C234.549 115.107 241.933 115.745 248.096 118.074C252.256 119.646 255.846 121.97 258.656 125.168C258.54 124.142 258.435 123.106 258.352 122.05C257.997 117.537 257.037 113.656 255.56 110.351C252.438 103.364 246.911 98.7812 239.856 96.1145C232.498 93.3338 223.456 92.59 213.673 93.3605C197.882 94.6042 180.318 99.7798 164.727 106.745C150.571 113.07 140.365 120.703 133.76 128.914C127.42 136.794 124.423 145.195 124.456 153.439C124.489 161.692 127.551 169.87 133.326 177.287C139.416 185.106 148.502 192.077 160.239 197.429C174.438 203.905 187.653 207.545 199.242 210.737C202.142 211.536 204.946 212.309 207.645 213.09Z" fill="#E77917"/>
</g>
</g>
</g>
</g>
</g>
</g>
<defs>
<clipPath id="clip0_355_127">
<rect width="1496.68" height="414.522" fill="white" transform="translate(1.6582 0.863892)"/>
</clipPath>
<clipPath id="clip1_355_127">
<rect width="1496.68" height="414.522" fill="white" transform="translate(1.6582 0.863892)"/>
</clipPath>
<clipPath id="clip2_355_127">
<rect width="1496.68" height="414.522" fill="white" transform="translate(1.6582 0.863892)"/>
</clipPath>
<clipPath id="clip3_355_127">
<rect width="1496.68" height="414.522" fill="white" transform="translate(1.6582 0.863892)"/>
</clipPath>
<clipPath id="clip4_355_127">
<rect width="963.637" height="299.944" fill="white" transform="translate(534.705 58.1532)"/>
</clipPath>
<clipPath id="clip5_355_127">
<rect width="963.637" height="299.944" fill="white" transform="translate(534.705 58.1532)"/>
</clipPath>
<clipPath id="clip6_355_127">
<rect width="963.637" height="299.944" fill="white" transform="translate(534.705 58.1532)"/>
</clipPath>
<clipPath id="clip7_355_127">
<rect width="963.637" height="299.944" fill="white" transform="translate(534.705 58.1532)"/>
</clipPath>
<clipPath id="clip8_355_127">
<rect width="462.237" height="414.522" fill="white" transform="translate(1.6582 0.863892)"/>
</clipPath>
<clipPath id="clip9_355_127">
<rect width="462.237" height="414.522" fill="white" transform="translate(1.6582 0.863892)"/>
</clipPath>
</defs>
</svg>
